<svg id="Group_962" data-name="Group 962" xmlns="http://www.w3.org/2000/svg" xmlns:xlink="http://www.w3.org/1999/xlink" width="26.023" height="27.065" viewBox="0 0 26.023 27.065">
  <defs>
    <clipPath id="clip-path">
      <rect id="Rectangle_112" data-name="Rectangle 112" width="26.024" height="27.065" fill="none"/>
    </clipPath>
  </defs>
  <g id="Group_143" data-name="Group 143" clip-path="url(#clip-path)">
    <path id="Path_15" data-name="Path 15" d="M25.346,14.929a1.788,1.788,0,0,1,0-2.8l0-.025a2.892,2.892,0,0,0-1.515-4.669l-.014-.026a1.788,1.788,0,0,1-1.647-2.264l-.017-.018a2.892,2.892,0,0,0-3.968-2.887l-.027-.013a1.788,1.788,0,0,1-2.666-.865l-.026,0a2.892,2.892,0,0,0-4.905,0l-.029.006a1.788,1.788,0,0,1-2.665.866l-.024.011A2.892,2.892,0,0,0,3.873,5.13l-.019.02A1.788,1.788,0,0,1,2.209,7.412l-.014.026A2.892,2.892,0,0,0,.68,12.107l0,.026a1.787,1.787,0,0,1,.674,1.4,1.786,1.786,0,0,1-.674,1.4l0,.028A2.892,2.892,0,0,0,2.2,19.627l.012.022a1.788,1.788,0,0,1,1.647,2.263l.017.019A2.892,2.892,0,0,0,7.845,24.82l.023.011a1.788,1.788,0,0,1,2.665.865l.023,0a2.892,2.892,0,0,0,4.91,0l.028-.005a1.788,1.788,0,0,1,2.661-.864l.023-.011a2.892,2.892,0,0,0,3.972-2.889l.019-.02a1.788,1.788,0,0,1,1.645-2.261l.012-.022a2.892,2.892,0,0,0,1.517-4.67l0-.028m-13.14,3.642a1.412,1.412,0,0,1-2,0h0L6.557,14.919a1.412,1.412,0,1,1,2-2l2.654,2.654,6.62-6.62a1.412,1.412,0,1,1,2,2Z" transform="translate(0)" fill="#8df894"/>
    <path id="Path_16" data-name="Path 16" d="M85.9,100.836a1.412,1.412,0,0,0-2,0l-6.62,6.62L74.632,104.8a1.412,1.412,0,0,0-2,2l3.652,3.652h0a1.412,1.412,0,0,0,2,0l7.618-7.618a1.412,1.412,0,0,0,0-2" transform="translate(-66.078 -91.88)" fill="#fff"/>
  </g>
</svg>
