<svg id="Group_1211" data-name="Group 1211" xmlns="http://www.w3.org/2000/svg" xmlns:xlink="http://www.w3.org/1999/xlink" width="51" height="71" viewBox="0 0 51 71">
  <defs>
    <clipPath id="clip-path">
      <rect id="Rectangle_905" data-name="Rectangle 905" width="51" height="71" transform="translate(0 0)" fill="none" stroke="#f1f5fc" stroke-width="1"/>
    </clipPath>
  </defs>
  <path id="Path_267" data-name="Path 267" d="M13,19.854l4.39,4.39L26.17,14" transform="translate(6.024 6.487)" fill="none" stroke="#f1f5fc" stroke-linecap="round" stroke-linejoin="round" stroke-width="2"/>
  <g id="Group_1210" data-name="Group 1210" transform="translate(0 0)">
    <g id="Group_1209" data-name="Group 1209" clip-path="url(#clip-path)">
      <path id="Path_268" data-name="Path 268" d="M30.837,3.358h0a8.049,8.049,0,0,0,5.691,2.358,8.048,8.048,0,0,1,8.049,8.049,8.049,8.049,0,0,0,2.358,5.691,8.048,8.048,0,0,1,0,11.382,8.054,8.054,0,0,0-2.358,5.691,8.048,8.048,0,0,1-8.049,8.049,8.049,8.049,0,0,0-5.691,2.358,8.048,8.048,0,0,1-11.382,0,8.054,8.054,0,0,0-5.691-2.358,8.048,8.048,0,0,1-8.049-8.049,8.054,8.054,0,0,0-2.358-5.691,8.048,8.048,0,0,1,0-11.382,8.049,8.049,0,0,0,2.358-5.691,8.048,8.048,0,0,1,8.049-8.049,8.054,8.054,0,0,0,5.691-2.358A8.048,8.048,0,0,1,30.837,3.358Z" transform="translate(0.463 0.463)" fill="none" stroke="#f1f5fc" stroke-linejoin="round" stroke-width="2"/>
      <path id="Path_269" data-name="Path 269" d="M27.1,30.848l9.745,18.089L29.1,46.9l-2.562,7.588L18.6,39.747" transform="translate(8.617 14.295)" fill="none" stroke="#f1f5fc" stroke-linecap="round" stroke-linejoin="round" stroke-width="2"/>
      <path id="Path_270" data-name="Path 270" d="M14.882,31.224,5.433,48.763l7.744-2.033,2.562,7.586,5.29-9.819" transform="translate(2.517 14.469)" fill="none" stroke="#f1f5fc" stroke-linecap="round" stroke-linejoin="round" stroke-width="2"/>
      <circle id="Ellipse_137" data-name="Ellipse 137" cx="13.5" cy="13.5" r="13.5" transform="translate(12 12)" fill="none" stroke="#f1f5fc" stroke-linejoin="round" stroke-width="2"/>
    </g>
  </g>
</svg>
