<svg id="Group_1204" data-name="Group 1204" xmlns="http://www.w3.org/2000/svg" xmlns:xlink="http://www.w3.org/1999/xlink" width="70.314" height="67.008" viewBox="0 0 70.314 67.008">
  <defs>
    <clipPath id="clip-path">
      <rect id="Rectangle_902" data-name="Rectangle 902" width="70.314" height="67.008" fill="none" stroke="#5b2df8" stroke-width="1"/>
    </clipPath>
  </defs>
  <g id="Group_1203" data-name="Group 1203" transform="translate(0 0)" clip-path="url(#clip-path)">
    <path id="Path_248" data-name="Path 248" d="M14.415,15.309c-1.358-4.067-6.479-4.97-7.937-4.1C4.812,12.2,8.5,18.512,4.539,30.225,2.9,35.054,1.375,39.767,1.067,43.772-.121,59.232,14.717,67.047,24.529,62.89L39.958,56.2" transform="translate(0.169 1.843)" fill="none" stroke="#5b2df8" stroke-miterlimit="10" stroke-width="2"/>
    <path id="Path_249" data-name="Path 249" d="M46.312,34.608a3.378,3.378,0,0,0-3.172-2.144,3.229,3.229,0,0,0-1.277.255l-3.66,1.6a3.557,3.557,0,0,0-1.827,4.6,3.385,3.385,0,0,0,3.169,2.144,3.242,3.242,0,0,0,1.281-.26l3.658-1.6A3.553,3.553,0,0,0,46.312,34.608Z" transform="translate(6.105 5.488)" fill="none" stroke="#5b2df8" stroke-miterlimit="10" stroke-width="2"/>
    <path id="Path_250" data-name="Path 250" d="M40.8,47.589l3.31-1.445a3.217,3.217,0,0,0,1.652-4.156A3.05,3.05,0,0,0,42.9,40.049a2.932,2.932,0,0,0-1.159.23l-3.308,1.445a3.22,3.22,0,0,0-1.654,4.16,3.057,3.057,0,0,0,2.869,1.938A2.915,2.915,0,0,0,40.8,47.589Z" transform="translate(6.178 6.77)" fill="none" stroke="#5b2df8" stroke-miterlimit="10" stroke-width="2"/>
    <path id="Path_251" data-name="Path 251" d="M36.389,31.3a3.384,3.384,0,0,0,3.172,2.144,3.234,3.234,0,0,0,1.277-.257l2.482-1.132a3.555,3.555,0,0,0,1.828-4.6,3.384,3.384,0,0,0-3.172-2.148,3.193,3.193,0,0,0-1.278.26L38.215,26.7A3.554,3.554,0,0,0,36.389,31.3Z" transform="translate(6.107 4.278)" fill="none" stroke="#5b2df8" stroke-miterlimit="10" stroke-width="2"/>
    <line id="Line_184" data-name="Line 184" x2="7.94" transform="translate(27.212 53.015)" fill="none" stroke="#5b2df8" stroke-linecap="round" stroke-miterlimit="10" stroke-width="2"/>
    <line id="Line_185" data-name="Line 185" x2="2.746" transform="translate(29.81 5.672)" fill="none" stroke="#5b2df8" stroke-linecap="round" stroke-miterlimit="10" stroke-width="2"/>
    <line id="Line_186" data-name="Line 186" x2="30.606" transform="translate(14.584 48.242)" fill="none" stroke="#5b2df8" stroke-miterlimit="10" stroke-width="2"/>
    <line id="Line_187" data-name="Line 187" x2="24.976" transform="translate(14.584 9.849)" fill="none" stroke="#5b2df8" stroke-miterlimit="10" stroke-width="2"/>
    <path id="Path_252" data-name="Path 252" d="M55.274,22.488a12.5,12.5,0,1,0-4.767,4.778l6.076,7.012a4.077,4.077,0,1,0,5.731-5.773Z" transform="translate(5.391 0.657)" fill="none" stroke="#f0398c" stroke-linejoin="round" stroke-width="2"/>
    <path id="Path_253" data-name="Path 253" d="M43.735,23.772a8.035,8.035,0,1,1,8.036-8.037A8.043,8.043,0,0,1,43.735,23.772Z" transform="translate(6.035 1.302)" fill="none" stroke="#f0398c" stroke-linejoin="round" stroke-width="2"/>
    <path id="Path_254" data-name="Path 254" d="M38.787,15.214a4.43,4.43,0,0,1,4.426-4.426" transform="translate(6.557 1.824)" fill="none" stroke="#f0398c" stroke-linecap="round" stroke-linejoin="round" stroke-width="2"/>
    <path id="Path_255" data-name="Path 255" d="M45.431,4.577a4.26,4.26,0,0,0-3.4-2.914C37.359,1.224,33.229,1,29.086,1s-8.292.224-13.014.67a4.362,4.362,0,0,0-3.6,4.376V53.119a4.366,4.366,0,0,0,3.64,4.382,128.966,128.966,0,0,0,12.959.659,113.6,113.6,0,0,0,12.2-.567c2.082-.316,4.34-1.721,4.4-3.754" transform="translate(2.109 0.169)" fill="none" stroke="#5b2df8" stroke-miterlimit="10" stroke-width="2"/>
    <line id="Line_188" data-name="Line 188" y1="12.895" transform="translate(23.645 28.203)" fill="none" stroke="#5b2df8" stroke-miterlimit="10" stroke-width="2"/>
    <line id="Line_189" data-name="Line 189" y1="19.017" transform="translate(29.92 22.081)" fill="none" stroke="#5b2df8" stroke-miterlimit="10" stroke-width="2"/>
    <line id="Line_190" data-name="Line 190" y1="7.443" transform="translate(36.195 33.654)" fill="none" stroke="#5b2df8" stroke-miterlimit="10" stroke-width="2"/>
  </g>
</svg>
