<svg xmlns="http://www.w3.org/2000/svg" xmlns:xlink="http://www.w3.org/1999/xlink" width="74" height="62.421" viewBox="0 0 74 62.421">
  <defs>
    <clipPath id="clip-path">
      <rect id="Rectangle_900" data-name="Rectangle 900" width="74" height="62.421" fill="none" stroke="#5d2efc" stroke-width="1"/>
    </clipPath>
  </defs>
  <g id="Group_1201" data-name="Group 1201" transform="translate(0 -0.001)">
    <g id="Group_1200" data-name="Group 1200" transform="translate(0 0)" clip-path="url(#clip-path)">
      <path id="Path_231" data-name="Path 231" d="M33.327,50.651H2.589A1.589,1.589,0,0,1,1,49.063V2.587A1.588,1.588,0,0,1,2.589,1H57.628a1.586,1.586,0,0,1,1.59,1.587V21.735" transform="translate(0.089 0.089)" fill="none" stroke="#5d2efc" stroke-miterlimit="10" stroke-width="2"/>
      <line id="Line_176" data-name="Line 176" x2="57.722" transform="translate(1.338 14.065)" fill="none" stroke="#5d2efc" stroke-miterlimit="10" stroke-width="2"/>
      <line id="Line_177" data-name="Line 177" x2="17.583" transform="translate(9.4 21.823)" fill="none" stroke="#5d2efc" stroke-miterlimit="10" stroke-width="2"/>
      <line id="Line_178" data-name="Line 178" x2="17.583" transform="translate(9.4 28.904)" fill="none" stroke="#5d2efc" stroke-miterlimit="10" stroke-width="2"/>
      <line id="Line_179" data-name="Line 179" x2="17.583" transform="translate(9.4 35.983)" fill="none" stroke="#5d2efc" stroke-miterlimit="10" stroke-width="2"/>
      <line id="Line_180" data-name="Line 180" x2="17.583" transform="translate(9.4 43.061)" fill="none" stroke="#5d2efc" stroke-miterlimit="10" stroke-width="2"/>
      <path id="Path_232" data-name="Path 232" d="M48.26,28.819V20.037H30.679V41.275h6.055" transform="translate(2.736 1.786)" fill="none" stroke="#5d2efc" stroke-linejoin="round" stroke-width="2"/>
      <path id="Path_233" data-name="Path 233" d="M13.06,4.317l2.859,2.86L13.06,10.037" transform="translate(1.165 0.384)" fill="none" stroke="#5d2efc" stroke-linecap="round" stroke-linejoin="round" stroke-width="2"/>
      <path id="Path_234" data-name="Path 234" d="M8.451,4.317,5.592,7.177l2.859,2.859" transform="translate(0.499 0.384)" fill="none" stroke="#5d2efc" stroke-linecap="round" stroke-linejoin="round" stroke-width="2"/>
      <path id="Path_235" data-name="Path 235" d="M43.106,54.045,32.349,57.161,33.9,46.772" transform="translate(2.885 4.171)" fill="none" stroke="#f0398c" stroke-linejoin="round" stroke-width="2"/>
      <path id="Path_236" data-name="Path 236" d="M33.769,49.125,59.651,22.151c.911-.925,4.538-3.324,8-.239,2.634,2.347,2.843,5.892,1.206,7.515L42.979,56.4S40.216,50.126,33.769,49.125Z" transform="translate(3.012 1.818)" fill="none" stroke="#f0398c" stroke-linejoin="round" stroke-width="2"/>
      <path id="Path_237" data-name="Path 237" d="M37.585,55.1A6.5,6.5,0,0,0,33.137,51.4" transform="translate(2.955 4.584)" fill="none" stroke="#f0398c" stroke-linejoin="round" stroke-width="2"/>
      <path id="Path_238" data-name="Path 238" d="M63.733,32.4s-1.982-6.85-8.767-7.729" transform="translate(4.902 2.2)" fill="none" stroke="#f0398c" stroke-linejoin="round" stroke-width="2"/>
      <line id="Line_181" data-name="Line 181" y1="2.118" x2="2.038" transform="translate(44.033 47.481)" fill="none" stroke="#f0398c" stroke-linecap="round" stroke-linejoin="round" stroke-width="2"/>
      <line id="Line_182" data-name="Line 182" y1="12.787" x2="12.278" transform="translate(48.682 31.943)" fill="none" stroke="#f0398c" stroke-linecap="round" stroke-linejoin="round" stroke-width="2"/>
    </g>
  </g>
</svg>
