<svg id="Group_1206" data-name="Group 1206" xmlns="http://www.w3.org/2000/svg" xmlns:xlink="http://www.w3.org/1999/xlink" width="67.566" height="66.036" viewBox="0 0 67.566 66.036">
  <defs>
    <clipPath id="clip-path">
      <rect id="Rectangle_903" data-name="Rectangle 903" width="67.566" height="66.036" fill="none" stroke="#5d2efc" stroke-width="1"/>
    </clipPath>
  </defs>
  <g id="Group_1205" data-name="Group 1205" transform="translate(0 0)" clip-path="url(#clip-path)">
    <path id="Path_256" data-name="Path 256" d="M20.8,35.654l-1.546-12.8a4.025,4.025,0,0,0-4.478-3.518,4.037,4.037,0,0,0-3.522,4.482L13.25,40.377c-.054-.07-.107-.142-.16-.216-2.854-3.934-5.971-4.2-7.576-4-2.18.265-4.145,1.691-4.474,3.248C.8,40.526,1.7,41.283,3.066,42.427a29.2,29.2,0,0,1,7.526,9.05C15.819,61.09,20.717,64.347,31.6,63.036c11-1.325,15.38-9.322,14.549-16.232L43.3,23.566A3.809,3.809,0,0,0,39.073,20.3a3.769,3.769,0,0,0-3.281,4.172L37.2,36.223l-2.054-17.1a4.02,4.02,0,0,0-1.513-2.691,4.126,4.126,0,0,0-3.022-.825,4.039,4.039,0,0,0-3.52,4.482l1.9,15.75L26.833,17.911a4.046,4.046,0,0,0-8.033.966Z" transform="translate(0.112 1.611)" fill="none" stroke="#5d2efc" stroke-linejoin="round" stroke-width="2"/>
    <line id="Line_191" data-name="Line 191" x2="4.661" y2="6.376" transform="translate(7.63 8.627)" fill="none" stroke="#f0398c" stroke-linecap="round" stroke-linejoin="round" stroke-width="2"/>
    <line id="Line_192" data-name="Line 192" x2="0.904" y2="6.784" transform="translate(16.589 5.498)" fill="none" stroke="#f0398c" stroke-linecap="round" stroke-linejoin="round" stroke-width="2"/>
    <line id="Line_193" data-name="Line 193" x2="6.091" y2="3.046" transform="translate(2.269 15.976)" fill="none" stroke="#f0398c" stroke-linecap="round" stroke-linejoin="round" stroke-width="2"/>
    <path id="Path_257" data-name="Path 257" d="M20.236,15.863l.008-3.251a3.781,3.781,0,0,1,7.562,0V7.228a4,4,0,0,1,1.178-2.852,4.115,4.115,0,0,1,2.9-1.182,4.043,4.043,0,0,1,4.033,4.032v-2.2a4.045,4.045,0,0,1,8.09,0l.02,16.892,0-12.89A4.031,4.031,0,0,1,48.052,5a4.043,4.043,0,0,1,4.036,4.032V25.709c.042-.077.086-.156.132-.235,2.363-4.246,5.426-4.879,7.042-4.879,2.194,0,4.318,1.182,4.829,2.687.374,1.085-.433,1.945-1.65,3.243a29.21,29.21,0,0,0-6.391,9.886C53.092,43.86,49.9,47.9,44.095,49.53" transform="translate(2.27 0.112)" fill="none" stroke="#5d2efc" stroke-linejoin="round" stroke-width="2"/>
  </g>
</svg>
