<svg xmlns="http://www.w3.org/2000/svg" xmlns:xlink="http://www.w3.org/1999/xlink" width="79.955" height="64.383" viewBox="0 0 79.955 64.383">
  <defs>
    <clipPath id="clip-path">
      <rect id="Rectangle_904" data-name="Rectangle 904" width="79.955" height="64.383" fill="none" stroke="#f1f5fc" stroke-width="1"/>
    </clipPath>
  </defs>
  <g id="Group_1208" data-name="Group 1208" transform="translate(0 0)">
    <g id="Group_1207" data-name="Group 1207" transform="translate(0 0)" clip-path="url(#clip-path)">
      <path id="Path_258" data-name="Path 258" d="M38.941,3.964A11.123,11.123,0,1,0,50.067,15.087,11.123,11.123,0,0,0,38.941,3.964Z" transform="translate(2.149 0.306)" fill="none" stroke="#f1f5fc" stroke-linejoin="round" stroke-width="2"/>
      <line id="Line_194" data-name="Line 194" x2="8.241" transform="translate(56.04 51.55)" fill="none" stroke="#f1f5fc" stroke-miterlimit="10" stroke-width="2"/>
      <line id="Line_195" data-name="Line 195" x2="8.084" transform="translate(18.058 51.55)" fill="none" stroke="#f1f5fc" stroke-miterlimit="10" stroke-width="2"/>
      <path id="Path_259" data-name="Path 259" d="M54.474,52.833h3.591a.655.655,0,0,1,.616,1.017L54.9,58.781c-.428.562-.828.429-1.326.429H25.48c-.5,0-.752.1-1.033-.38l-4.08-4.979a.654.654,0,0,1,.616-1.017h3.592" transform="translate(1.566 4.082)" fill="none" stroke="#f1f5fc" stroke-miterlimit="10" stroke-width="2"/>
      <path id="Path_260" data-name="Path 260" d="M24.267,60.059V40.109a.905.905,0,0,1,.9-.9H53.259a.905.905,0,0,1,.9.9V60.19" transform="translate(1.875 3.029)" fill="none" stroke="#f1f5fc" stroke-miterlimit="10" stroke-width="2"/>
      <line id="Line_196" data-name="Line 196" x2="0.524" transform="translate(40.83 52.762)" fill="none" stroke="#f1f5fc" stroke-linecap="round" stroke-miterlimit="10" stroke-width="2"/>
      <line id="Line_197" data-name="Line 197" y2="10.369" transform="translate(10.53 6.264)" fill="none" stroke="#f1f5fc" stroke-miterlimit="10" stroke-width="2"/>
      <line id="Line_198" data-name="Line 198" y2="12.67" transform="translate(23.781 3.964)" fill="none" stroke="#f1f5fc" stroke-miterlimit="10" stroke-width="2"/>
      <line id="Line_199" data-name="Line 199" y2="16.633" transform="translate(17.155 0)" fill="none" stroke="#f1f5fc" stroke-miterlimit="10" stroke-width="2"/>
      <circle id="Ellipse_135" data-name="Ellipse 135" cx="2.43" cy="2.43" r="2.43" transform="translate(15.504 28.673)" fill="none" stroke="#f1f5fc" stroke-miterlimit="10" stroke-width="2"/>
      <path id="Path_261" data-name="Path 261" d="M25.011,22.261a2.431,2.431,0,1,1-2.43-2.43A2.431,2.431,0,0,1,25.011,22.261Z" transform="translate(1.557 1.532)" fill="none" stroke="#f1f5fc" stroke-miterlimit="10" stroke-width="2"/>
      <path id="Path_262" data-name="Path 262" d="M5.863,31.3a2.431,2.431,0,1,1-2.43-2.43A2.431,2.431,0,0,1,5.863,31.3Z" transform="translate(0.077 2.231)" fill="none" stroke="#f1f5fc" stroke-miterlimit="10" stroke-width="2"/>
      <circle id="Ellipse_136" data-name="Ellipse 136" cx="2.43" cy="2.43" r="2.43" transform="translate(7.281 23.794)" fill="none" stroke="#f1f5fc" stroke-miterlimit="10" stroke-width="2"/>
      <line id="Line_200" data-name="Line 200" y1="3.561" x2="3.022" transform="translate(5.098 28.098)" fill="none" stroke="#f1f5fc" stroke-miterlimit="10" stroke-width="2"/>
      <line id="Line_201" data-name="Line 201" x2="4.09" y2="2.332" transform="translate(11.746 27.548)" fill="none" stroke="#f1f5fc" stroke-miterlimit="10" stroke-width="2"/>
      <line id="Line_202" data-name="Line 202" y1="3.525" x2="3.16" transform="translate(19.503 25.722)" fill="none" stroke="#f1f5fc" stroke-miterlimit="10" stroke-width="2"/>
      <path id="Path_263" data-name="Path 263" d="M63.848,18.737,55.59,25.915a10.943,10.943,0,0,1,1.08-15.436A10.551,10.551,0,0,1,63.848,7.8Z" transform="translate(4.088 0.602)" fill="none" stroke="#f1f5fc" stroke-linejoin="round" stroke-width="2"/>
      <path id="Path_264" data-name="Path 264" d="M63.655,17.952,74.49,19.475a10.939,10.939,0,0,1-12.357,9.311A10.552,10.552,0,0,1,55.4,25.13Z" transform="translate(4.28 1.387)" fill="none" stroke="#f1f5fc" stroke-linejoin="round" stroke-width="2"/>
      <path id="Path_265" data-name="Path 265" d="M63.063,18.737V7.8A10.942,10.942,0,0,1,74.006,18.737,10.3,10.3,0,0,1,73.9,20.26Z" transform="translate(4.872 0.602)" fill="none" stroke="#f1f5fc" stroke-linejoin="round" stroke-width="2"/>
      <path id="Path_266" data-name="Path 266" d="M59.1,49.344V42.4c0-5.407-4.175-13.846-19.553-13.846S19.994,36.279,19.994,42.4v6.941" transform="translate(1.545 2.207)" fill="none" stroke="#f1f5fc" stroke-linejoin="round" stroke-width="2"/>
    </g>
  </g>
</svg>
