<svg id="Group_1213" data-name="Group 1213" xmlns="http://www.w3.org/2000/svg" xmlns:xlink="http://www.w3.org/1999/xlink" width="63.514" height="70.773" viewBox="0 0 63.514 70.773">
  <defs>
    <clipPath id="clip-path">
      <rect id="Rectangle_906" data-name="Rectangle 906" width="63.514" height="70.773" transform="translate(0 0)" fill="none" stroke="#f1f5fc" stroke-width="1"/>
    </clipPath>
  </defs>
  <g id="Group_1212" data-name="Group 1212" clip-path="url(#clip-path)">
    <path id="Path_271" data-name="Path 271" d="M63.514,49.2H51.831a1.588,1.588,0,0,0-1.588,1.589v8.634H37.862a1.593,1.593,0,0,0-1.593,1.591v8.757h-11.2" fill="none" stroke="#f1f5fc" stroke-linejoin="round" stroke-width="2"/>
    <path id="Path_272" data-name="Path 272" d="M25.438,36.477l-.375,9.684c-.491,1.7-2.3,7.947-2.714,9.351-.741,2.478.889,3.582,1.44,3.78,1.69.61,3.252.394,4-1.312.544-1.239,2.573-6.7,3.462-9.12a8.736,8.736,0,0,0,.528-2.527l.538-6.516" fill="none" stroke="#f1f5fc" stroke-linejoin="round" stroke-width="2"/>
    <path id="Path_273" data-name="Path 273" d="M40.153,16.791l5.037,7.335,5.729,3.448a3.129,3.129,0,0,1,1.6,1.874,2.977,2.977,0,0,1-.265,2.117,2.526,2.526,0,0,1-2.078,1.289,3.983,3.983,0,0,1-1.925-.569l-6.793-3.5a4.848,4.848,0,0,1-1.428-1.016l-2.246-2.342-2.756,6.272.436.224c1.613.832,6.987,3.709,8.939,4.974a2.643,2.643,0,0,1,.859,2.376c.047,1.219.013,8.856-.084,11.736-.071,2.13-1.241,3.453-3.053,3.453a2.909,2.909,0,0,1-3.243-2.775l-.5-9.373-.309-.124c-2.078-.83-9.07-3.659-11.859-5.2a4.082,4.082,0,0,1-2.037-5.244c.786-2,4.437-9.312,4.437-9.312l-3.169,2.116-5.3,5.1a3.086,3.086,0,0,1-2.139.9,2.859,2.859,0,0,1-1.892-.725,2.486,2.486,0,0,1-.823-1.844,3.517,3.517,0,0,1,1.141-2.575l5.479-6.195a5.2,5.2,0,0,1,1.558-1c.942-.429,6.113-3.2,8.308-3.847C33.865,13.749,37.831,13.506,40.153,16.791Z" fill="none" stroke="#f1f5fc" stroke-linejoin="round" stroke-width="2"/>
    <path id="Path_274" data-name="Path 274" d="M13.714,46.5a.734.734,0,0,1-.456-.16L1.275,36.9a.733.733,0,0,1-.116-1.028L7.306,28.1a.728.728,0,0,1,.573-.279.737.737,0,0,1,.456.159l11.981,9.45a.722.722,0,0,1,.117,1.025l-6.149,7.768A.723.723,0,0,1,13.714,46.5Z" fill="none" stroke="#f1f5fc" stroke-linejoin="round" stroke-width="2"/>
    <path id="Path_275" data-name="Path 275" d="M44.292,13.917a6.458,6.458,0,1,1,6.457-6.458A6.467,6.467,0,0,1,44.292,13.917Z" fill="none" stroke="#f1f5fc" stroke-linejoin="round" stroke-width="2"/>
  </g>
</svg>
